<?xml version="1.0" encoding="utf-8"?>
<svg version="1.1" xmlns:xlink="http://www.w3.org/1999/xlink" width="54px" height="46px" xmlns="http://www.w3.org/2000/svg">
  <g transform="matrix(1 0 0 1 -143 -381 )">
    <path d="M 19.536057692307693 38.877840909090914  C 20.35817307692308 39.70549242424242  20.76923076923077 40.685606060606055  20.76923076923077 41.81818181818182  C 20.76923076923077 42.95075757575758  20.35817307692308 43.93087121212122  19.536057692307693 44.75852272727273  C 18.71394230769231 45.58617424242424  17.740384615384617 46  16.615384615384617 46  C 15.490384615384617 46  14.516826923076925 45.58617424242424  13.694711538461538 44.75852272727273  C 12.872596153846153 43.93087121212122  12.461538461538462 42.95075757575758  12.461538461538462 41.81818181818182  C 12.461538461538462 40.685606060606055  12.872596153846153 39.70549242424242  13.694711538461538 38.877840909090914  C 14.516826923076925 38.0501893939394  15.490384615384617 37.63636363636363  16.615384615384617 37.63636363636363  C 17.740384615384617 37.63636363636363  18.71394230769231 38.0501893939394  19.536057692307693 38.877840909090914  Z M 48.61298076923077 38.877840909090914  C 49.435096153846146 39.70549242424242  49.84615384615385 40.685606060606055  49.84615384615385 41.81818181818182  C 49.84615384615385 42.95075757575758  49.435096153846146 43.93087121212122  48.61298076923077 44.75852272727273  C 47.79086538461539 45.58617424242424  46.81730769230769 46  45.69230769230769 46  C 44.56730769230769 46  43.59375000000001 45.58617424242424  42.77163461538461 44.75852272727273  C 41.94951923076923 43.93087121212122  41.53846153846154 42.95075757575758  41.53846153846154 41.81818181818182  C 41.53846153846154 40.685606060606055  41.94951923076923 39.70549242424242  42.77163461538461 38.877840909090914  C 43.59375000000001 38.0501893939394  44.56730769230769 37.63636363636363  45.69230769230769 37.63636363636363  C 46.81730769230769 37.63636363636363  47.79086538461539 38.0501893939394  48.61298076923077 38.877840909090914  Z M 53.38341346153846 4.802556818181817  C 53.79447115384616 5.216382575757571  54 5.706439393939387  54 6.2727272727272725  L 54 23  C 54 23.522727272727273  53.82151442307693 23.985558712121215  53.46454326923077 24.38849431818182  C 53.10757211538461 24.79142992424242  52.66947115384615 25.02556818181818  52.15024038461539 25.09090909090909  L 18.270432692307693 29.076704545454543  C 18.551682692307693 30.383522727272727  18.692307692307693 31.14583333333333  18.692307692307693 31.363636363636367  C 18.692307692307693 31.712121212121204  18.432692307692307 32.409090909090914  17.913461538461537 33  L 47.76923076923077 33  C 48.331730769230774 33.45454545454545  48.81850961538462 33.66145833333333  49.22956730769231 34.075284090909086  C 49.64062499999999 34.48910984848485  49.84615384615385 34.97916666666667  49.84615384615385 35.54545454545455  C 49.84615384615385 36.11174242424242  49.64062499999999 36.60179924242424  49.22956730769231 37.015625  C 48.81850961538462 37.42945075757576  48.331730769230774 37.63636363636363  47.76923076923077 37  L 14.538461538461538 37  C 13.97596153846154 37.63636363636363  13.489182692307692 37.42945075757576  13.078125 37.015625  C 12.667067307692308 36.60179924242424  12.461538461538462 36.11174242424242  12.461538461538462 35.54545454545455  C 12.461538461538462 35.30587121212122  12.548076923076922 34.962831439393945  12.721153846153847 34.51633522727273  C 12.89423076923077 34.069839015151516  13.067307692307692 33.677793560606055  13.240384615384615 33.34019886363637  C 13.41346153846154 33.00260416666666  13.646033653846153 32.56699810606061  13.938100961538462 32.03338068181818  C 14.23016826923077 31.49976325757575  14.39783653846154 31.178503787878785  14.44110576923077 31.069602272727273  L 8.697115384615385 4.181818181818183  L 2.076923076923077 4.181818181818183  C 1.514423076923077 4.181818181818183  1.0276442307692308 3.9749053030302983  0.6165865384615384 3.5610795454545445  C 0.20552884615384615 3.1472537878787854  0 2.657196969696969  0 2.090909090909089  C 0 1.5246212121212095  0.20552884615384615 1.0345643939393876  0.6165865384615384 0.6207386363636387  C 1.0276442307692308 0.20691287878787445  1.514423076923077 0  2.076923076923077 0  L 10.384615384615385 0  C 10.730769230769232 0  11.0390625 0.07078598484848175  11.309495192307692 0.21235795454545547  C 11.579927884615387 0.3539299242424241  11.790865384615387 0.5227272727272723  11.942307692307692 0.71875  C 12.09375 0.9147727272727277  12.234375 1.1815814393939321  12.364182692307692 1.5191761363636387  C 12.493990384615387 1.85677083333333  12.580528846153848 2.1399147727272725  12.623798076923077 2.3686079545454555  C 12.667067307692308 2.5973011363636385  12.7265625 2.918560606060602  12.802283653846153 3.3323863636363615  C 12.878004807692308 3.7462121212121153  12.926682692307693 4.029356060606058  12.948317307692308 5  L 51.92307692307693 5  C 52.48557692307693 4.181818181818183  52.972355769230774 4.388731060606058  53.38341346153846 4.802556818181817  Z " fill-rule="nonzero" fill="#000000" stroke="none" transform="matrix(1 0 0 1 143 381 )" />
  </g>
</svg>